# xmcd
#
# Track frame offsets:
#  175
#  11175
#  23640
#  35102
#  45005
#  57045
#  69260
#  81730
#  94415
#  103985
#  114687
#  124555
#  135710
#  145385
#  154172
#  164602
#  173512
#  182487
#
# Disc length: 2592 seconds
#
# Revision: 0
# Processed by: cddbd v1.4PL0 Copyright (c) Steve Scherf et al.
# Submitted via: AltoMP3_Maker 3.0
#
DISCID=f60a1e12
DTITLE=Roy Orbison - The Hit Collection
DYEAR=1900
DGENRE=
TTITLE0=Only The Lonely
TTITLE1=Crying
TTITLE2=Dream Baby. How Long Must I Dream
TTITLE3=Running Scared
TTITLE4=Candy Man
TTITLE5=Leah
TTITLE6=Blue Angel
TTITLE7=I'm Hurting
TTITLE8=Uptown
TTITLE9=The Crowd
TTITLE10=Ooby Dooby
TTITLE11=Working For The Man
TTITLE12=Devil Doll
TTITLE13=Mean Little Mama
TTITLE14=A True Love Goodbye
TTITLE15=It's Too Late
TTITLE16=I Give Up
TTITLE17=Trying To Get You
EXTD=
EXTT0=
EXTT1=
EXTT2=
EXTT3=
EXTT4=
EXTT5=
EXTT6=
EXTT7=
EXTT8=
EXTT9=
EXTT10=
EXTT11=
EXTT12=
EXTT13=
EXTT14=
EXTT15=
EXTT16=
EXTT17=
PLAYORDER=
